<mxfile host="app.diagrams.net" modified="2021-12-10T13:40:30.808Z" agent="5.0 (Macintosh; Intel Mac OS X 10_15_7) AppleWebKit/537.36 (KHTML, like Gecko) Chrome/95.0.4638.54 Safari/537.36" etag="R_M2AHDofHLgoaNIYCfw" version="15.9.1" type="github">
  <diagram id="Kp52UvZmoiokhXUFRGFn" name="第 1 页">
    <mxGraphModel dx="472" dy="249" grid="1" gridSize="1" guides="1" tooltips="1" connect="1" arrows="1" fold="1" page="1" pageScale="1" pageWidth="827" pageHeight="1169" math="0" shadow="0">
      <root>
        <mxCell id="0" />
        <mxCell id="1" parent="0" />
        <mxCell id="3utxLJ9JcE_4pV7usURz-1" value="&lt;span style=&quot;font-size: 11px&quot;&gt;维修&lt;/span&gt;" style="rounded=0;whiteSpace=wrap;html=1;direction=south;" vertex="1" parent="1">
          <mxGeometry x="220" y="200" width="32" height="32" as="geometry" />
        </mxCell>
        <mxCell id="3utxLJ9JcE_4pV7usURz-3" value="&lt;font style=&quot;font-size: 11px&quot;&gt;书店&lt;/font&gt;" style="rounded=0;whiteSpace=wrap;html=1;direction=south;" vertex="1" parent="1">
          <mxGeometry x="253" y="200" width="32" height="32" as="geometry" />
        </mxCell>
        <mxCell id="3utxLJ9JcE_4pV7usURz-4" value="树屋" style="rounded=0;whiteSpace=wrap;html=1;direction=south;" vertex="1" parent="1">
          <mxGeometry x="220" y="255" width="32" height="32" as="geometry" />
        </mxCell>
        <mxCell id="3utxLJ9JcE_4pV7usURz-6" value="&lt;font style=&quot;font-size: 11px&quot;&gt;中心&lt;/font&gt;" style="rounded=0;whiteSpace=wrap;html=1;direction=south;" vertex="1" parent="1">
          <mxGeometry x="286" y="200" width="44" height="32" as="geometry" />
        </mxCell>
        <mxCell id="3utxLJ9JcE_4pV7usURz-7" value="&lt;font style=&quot;font-size: 11px&quot;&gt;警察&lt;/font&gt;" style="rounded=0;whiteSpace=wrap;html=1;direction=south;" vertex="1" parent="1">
          <mxGeometry x="331" y="200" width="32" height="32" as="geometry" />
        </mxCell>
        <mxCell id="3utxLJ9JcE_4pV7usURz-8" value="&lt;font style=&quot;font-size: 11px&quot;&gt;酒店&lt;/font&gt;" style="rounded=0;whiteSpace=wrap;html=1;direction=south;" vertex="1" parent="1">
          <mxGeometry x="364" y="200" width="32" height="32" as="geometry" />
        </mxCell>
        <mxCell id="3utxLJ9JcE_4pV7usURz-9" value="铁匠" style="rounded=0;whiteSpace=wrap;html=1;direction=south;" vertex="1" parent="1">
          <mxGeometry x="286" y="255" width="32" height="32" as="geometry" />
        </mxCell>
        <mxCell id="3utxLJ9JcE_4pV7usURz-10" value="忍花" style="rounded=0;whiteSpace=wrap;html=1;direction=south;" vertex="1" parent="1">
          <mxGeometry x="319" y="255" width="32" height="32" as="geometry" />
        </mxCell>
        <mxCell id="3utxLJ9JcE_4pV7usURz-11" value="维尼" style="rounded=0;whiteSpace=wrap;html=1;direction=south;" vertex="1" parent="1">
          <mxGeometry x="253" y="255" width="32" height="32" as="geometry" />
        </mxCell>
        <mxCell id="3utxLJ9JcE_4pV7usURz-12" value="&lt;font style=&quot;font-size: 11px&quot;&gt;酒店&lt;/font&gt;" style="rounded=0;whiteSpace=wrap;html=1;direction=south;" vertex="1" parent="1">
          <mxGeometry x="424" y="200" width="32" height="32" as="geometry" />
        </mxCell>
        <mxCell id="3utxLJ9JcE_4pV7usURz-13" value="&lt;font style=&quot;font-size: 11px&quot;&gt;酒店&lt;/font&gt;" style="rounded=0;whiteSpace=wrap;html=1;direction=south;" vertex="1" parent="1">
          <mxGeometry x="424" y="233" width="32" height="32" as="geometry" />
        </mxCell>
      </root>
    </mxGraphModel>
  </diagram>
</mxfile>
